<?xml version="1.0" encoding="UTF-8" standalone="no"?>
<svg
   width="16"
   height="16"
   version="1.1"
   id="svg4"
   sodipodi:docname="Control.svg"
   xml:space="preserve"
   inkscape:version="1.2 (dc2aedaf03, 2022-05-15)"
   xmlns:inkscape="http://www.inkscape.org/namespaces/inkscape"
   xmlns:sodipodi="http://sodipodi.sourceforge.net/DTD/sodipodi-0.dtd"
   xmlns="http://www.w3.org/2000/svg"
   xmlns:svg="http://www.w3.org/2000/svg"><defs
     id="defs8" /><sodipodi:namedview
     id="namedview6"
     pagecolor="#ffffff"
     bordercolor="#666666"
     borderopacity="1.0"
     inkscape:showpageshadow="2"
     inkscape:pageopacity="0.0"
     inkscape:pagecheckerboard="0"
     inkscape:deskcolor="#d1d1d1"
     showgrid="false"
     inkscape:zoom="59"
     inkscape:cx="6.8135593"
     inkscape:cy="8.3983051"
     inkscape:window-width="2160"
     inkscape:window-height="1373"
     inkscape:window-x="-9"
     inkscape:window-y="29"
     inkscape:window-maximized="1"
     inkscape:current-layer="svg4" /><circle
     cx="5.9491525"
     cy="5.9491525"
     r="4.1949153"
     fill="none"
     stroke="#8eef97"
     stroke-width="1.67797"
     id="circle2" /><path
     fill="#e0e0e0"
     d="m 6.1670699,4.7966098 c -0.7943492,0 -1.4382567,0.6439075 -1.4382567,1.4382567 V 6.9539948 H 14.79661 V 6.2348665 c 0,-0.7943492 -0.643929,-1.4382567 -1.438257,-1.4382567 z m 6.4721551,0.7191283 h 0.719128 V 6.2348665 H 12.639225 Z M 4.7288132,7.6731232 V 13.42615 c 0,0.794349 0.6439291,1.438257 1.4382567,1.438257 h 7.1912831 c 0.794349,0 1.438257,-0.643908 1.438257,-1.438257 V 7.6731232 Z"
     id="path168"
     style="stroke-width:0.719128" /><path
     style="opacity:1;fill:#8eef97;fill-opacity:1;stroke:none;stroke-width:0.12812;stroke-linecap:round;stroke-linejoin:round;stroke-miterlimit:4;stroke-dasharray:none;stroke-opacity:1;paint-order:markers stroke fill"
     d="M 5.8728814,14.83116 C 5.3372798,14.713724 4.9295373,14.322956 4.7757057,13.779661 l -0.038393,-0.135593 -0.00457,-2.986181 -0.00457,-2.9861805 5.0345383,4.253e-4 5.034538,4.252e-4 -0.0046,2.985755 -0.0046,2.985756 -0.03796,0.135593 c -0.0828,0.295793 -0.264107,0.577903 -0.488034,0.759367 -0.137897,0.111748 -0.274468,0.185777 -0.465511,0.252334 l -0.161017,0.0561 -3.8305079,0.003 c -3.1120346,0.0024 -3.849583,-0.0012 -3.9322034,-0.0193 z"
     id="path246" /><path
     style="opacity:1;fill:#8eef97;fill-opacity:1;stroke:none;stroke-width:0.12812;stroke-linecap:round;stroke-linejoin:round;stroke-miterlimit:4;stroke-dasharray:none;stroke-opacity:1;paint-order:markers stroke fill"
     d="M 4.7329665,6.4863556 C 4.7394231,6.0712398 4.7445371,6.0012667 4.7771829,5.8813559 4.9248058,5.3391249 5.339126,4.94413 5.8809413,4.8290806 c 0.1648975,-0.035014 7.5986617,-0.035017 7.7635407,-2.5e-6 0.54183,0.115065 0.956136,0.5100471 1.103759,1.0522778 0.03264,0.1198861 0.03776,0.1898928 0.04421,0.6043382 l 0.0073,0.4687449 -5.0370392,6.61e-4 -5.0370394,6.61e-4 0.0073,-0.4694066 z M 13.355932,5.8813559 V 5.5169492 H 13 12.644068 V 5.8813559 6.2457627 H 13 13.355932 Z"
     id="path248" /></svg>
