<svg width="300" height="300" viewBox="0 0 300 300" fill="none" xmlns="http://www.w3.org/2000/svg">
<mask id="path-1-inside-1_869_1702" fill="white">
<path d="M300 150C300 232.843 232.843 300 150 300C67.1573 300 0 232.843 0 150C0 67.1573 67.1573 0 150 0C232.843 0 300 67.1573 300 150ZM6.26303 150C6.26303 229.384 70.6163 293.737 150 293.737C229.384 293.737 293.737 229.384 293.737 150C293.737 70.6163 229.384 6.26303 150 6.26303C70.6163 6.26303 6.26303 70.6163 6.26303 150Z"/>
</mask>
<path d="M300 150C300 232.843 232.843 300 150 300C67.1573 300 0 232.843 0 150C0 67.1573 67.1573 0 150 0C232.843 0 300 67.1573 300 150ZM6.26303 150C6.26303 229.384 70.6163 293.737 150 293.737C229.384 293.737 293.737 229.384 293.737 150C293.737 70.6163 229.384 6.26303 150 6.26303C70.6163 6.26303 6.26303 70.6163 6.26303 150Z" stroke="#FFD8E4" stroke-width="168" mask="url(#path-1-inside-1_869_1702)"/>
</svg>
