<svg width="24" height="24" viewBox="0 0 24 24" fill="none" xmlns="http://www.w3.org/2000/svg">
<g id="TwitterLogo">
<path id="Vector" d="M23.0306 7.28062L20.2275 10.0837C19.6613 16.6481 14.1253 21.75 7.5 21.75C6.13875 21.75 5.01656 21.5344 4.16438 21.1088C3.47719 20.7647 3.19594 20.3962 3.12563 20.2912C3.06293 20.1972 3.02229 20.0902 3.00675 19.9783C2.99121 19.8664 3.00116 19.7524 3.03587 19.6448C3.07058 19.5373 3.12914 19.439 3.20718 19.3572C3.28523 19.2755 3.38073 19.2124 3.48656 19.1728C3.51094 19.1634 5.75906 18.3 7.18688 16.6566C6.39505 16.0055 5.70382 15.241 5.13563 14.3878C3.97313 12.6619 2.67188 9.66375 3.07313 5.18344C3.08584 5.04107 3.13898 4.90531 3.22627 4.79213C3.31356 4.67895 3.43137 4.59307 3.56584 4.54461C3.7003 4.49614 3.84581 4.48711 3.98524 4.51857C4.12466 4.55003 4.25219 4.62068 4.35281 4.72219C4.38563 4.755 7.47281 7.82531 11.2472 8.82094V8.25C11.2458 7.65131 11.3641 7.05838 11.5953 6.50613C11.8265 5.95388 12.1659 5.45347 12.5934 5.03437C13.0087 4.61974 13.5027 4.29248 14.0465 4.07188C14.5902 3.85129 15.1726 3.74185 15.7594 3.75C16.5465 3.75776 17.3181 3.96905 17.9994 4.36332C18.6807 4.75758 19.2483 5.32142 19.6472 6H22.5C22.6484 5.99988 22.7935 6.04381 22.917 6.12621C23.0404 6.20861 23.1367 6.32579 23.1935 6.46291C23.2503 6.60002 23.2651 6.75092 23.2361 6.89648C23.2072 7.04204 23.1356 7.17573 23.0306 7.28062Z" fill="white"/>
</g>
</svg>
